<svg xmlns="http://www.w3.org/2000/svg" width="1200" height="630" viewBox="0 0 1200 630" font-family="Inter, 'Helvetica Neue', Arial, sans-serif">
  <defs>
    <linearGradient id="bg" x1="0" y1="0" x2="1" y2="1">
      <stop offset="0" stop-color="#0b0f17"/>
      <stop offset="0.55" stop-color="#0d1320"/>
      <stop offset="1" stop-color="#11030a"/>
    </linearGradient>
    <radialGradient id="glow" cx="0.82" cy="0.22" r="0.6">
      <stop offset="0" stop-color="#D91023" stop-opacity="0.30"/>
      <stop offset="1" stop-color="#D91023" stop-opacity="0"/>
    </radialGradient>
    <linearGradient id="title" x1="0" y1="0" x2="1" y2="0">
      <stop offset="0" stop-color="#ffffff"/>
      <stop offset="1" stop-color="#ffd9dd"/>
    </linearGradient>
    <filter id="soft" x="-20%" y="-20%" width="140%" height="140%">
      <feGaussianBlur stdDeviation="6"/>
    </filter>
  </defs>

  <rect width="1200" height="630" fill="url(#bg)"/>
  <rect width="1200" height="630" fill="url(#glow)"/>

  <!-- Malla de red de poder (decorativa) -->
  <g transform="translate(70,12)">
  <g stroke="#1f2a3d" stroke-width="1.2" opacity="0.7">
    <line x1="835" y1="150" x2="980" y2="95"/>
    <line x1="835" y1="150" x2="1010" y2="240"/>
    <line x1="835" y1="150" x2="720" y2="250"/>
    <line x1="1010" y1="240" x2="1100" y2="170"/>
    <line x1="1010" y1="240" x2="1060" y2="360"/>
    <line x1="720" y1="250" x2="780" y2="380"/>
    <line x1="720" y1="250" x2="620" y2="170"/>
    <line x1="1060" y1="360" x2="935" y2="445"/>
    <line x1="780" y1="380" x2="935" y2="445"/>
    <line x1="980" y1="95" x2="1100" y2="170"/>
  </g>
  <!-- aristas hipótesis (punteadas, ámbar) -->
  <g stroke="#d97706" stroke-width="1.4" stroke-dasharray="4 5" opacity="0.85">
    <line x1="935" y1="445" x2="1100" y2="500"/>
    <line x1="620" y1="170" x2="540" y2="300"/>
  </g>
  <g>
    <circle cx="835" cy="150" r="13" fill="#D91023"/>
    <circle cx="980" cy="95"  r="8"  fill="#2563eb"/>
    <circle cx="1010" cy="240" r="10" fill="#7c3aed"/>
    <circle cx="720" cy="250" r="9"  fill="#2563eb"/>
    <circle cx="1100" cy="170" r="7"  fill="#0891b2"/>
    <circle cx="1060" cy="360" r="8"  fill="#0891b2"/>
    <circle cx="780" cy="380" r="7"  fill="#2563eb"/>
    <circle cx="620" cy="170" r="7"  fill="#16a34a"/>
    <circle cx="935" cy="445" r="11" fill="#D91023"/>
    <circle cx="1100" cy="500" r="6" fill="#d97706"/>
    <circle cx="540" cy="300" r="6"  fill="#d97706"/>
  </g>
  </g>

  <!-- Franja peruana sutil arriba -->
  <rect x="0" y="0" width="1200" height="6" fill="#D91023"/>

  <!-- Bandera / marca -->
  <g transform="translate(80,128)">
    <rect x="0" y="0" width="10" height="30" rx="1" fill="#D91023"/>
    <rect x="10" y="0" width="10" height="30" fill="#f3f4f6"/>
    <rect x="20" y="0" width="10" height="30" rx="1" fill="#D91023"/>
  </g>
  <text x="124" y="150" fill="#9fb0c9" font-size="22" font-weight="600" letter-spacing="3">PLATAFORMA OPEN SOURCE DE TRANSPARENCIA</text>

  <!-- Título -->
  <text x="78" y="262" fill="url(#title)" font-size="92" font-weight="800" letter-spacing="-2">Perú Transparente</text>

  <!-- Subtítulo -->
  <text x="80" y="320" fill="#c7d2e0" font-size="30" font-weight="500">Mapa nacional de funcionarios, entidades, empresas</text>
  <text x="80" y="362" fill="#c7d2e0" font-size="30" font-weight="500">estatales y <tspan fill="#ff5d6c" font-weight="700">redes de poder</tspan>.</text>

  <!-- Chips KPI -->
  <g font-size="22" font-weight="600">
    <g transform="translate(80,420)">
      <rect width="232" height="58" rx="12" fill="#111827" stroke="#22304a"/>
      <text x="20" y="37" fill="#ffffff">Entidades públicas</text>
    </g>
    <g transform="translate(326,420)">
      <rect width="210" height="58" rx="12" fill="#111827" stroke="#22304a"/>
      <text x="20" y="37" fill="#ffffff">Funcionarios</text>
    </g>
    <g transform="translate(550,420)">
      <rect width="270" height="58" rx="12" fill="#111827" stroke="#22304a"/>
      <text x="20" y="37" fill="#ffffff">Empresas FONAFE</text>
    </g>
  </g>
  <g font-size="22" font-weight="600">
    <g transform="translate(80,492)">
      <rect width="232" height="58" rx="12" fill="#111827" stroke="#22304a"/>
      <text x="20" y="37" fill="#ffffff">Contrataciones</text>
    </g>
    <g transform="translate(326,492)">
      <rect width="210" height="58" rx="12" fill="#111827" stroke="#22304a"/>
      <text x="20" y="37" fill="#ffffff">Grafo de poder</text>
    </g>
    <g transform="translate(550,492)">
      <rect width="270" height="58" rx="12" fill="#111827" stroke="#22304a"/>
      <text x="20" y="37" fill="#ffffff">Datos abiertos · API</text>
    </g>
  </g>

  <!-- Pie -->
  <text x="80" y="588" fill="#6b7a90" font-size="21">Por Carlos Cárdenas Fernández · @unimauro · datos públicos, trazables a la fuente</text>
  <text x="1120" y="588" fill="#6b7a90" font-size="21" text-anchor="end">github.com/unimauro/peru-transparente</text>
</svg>
